#N canvas -8 -8 1366 686 10;
#X obj 129 243 noteout;
#X obj 207 202 makenote;
#X obj 384 30 nbx 5 14 -1e+037 1e+037 0 0 empty empty empty 0 -8 0
10 -262144 -1 -1 375 256;
#X obj 24 9 bng 15 250 50 0 empty empty empty 17 7 0 10 -262144 -1
-1;
#X obj 35 198 print;
#X obj 34 57 metro;
#X obj 66 -9 nbx 5 14 -1e+037 1e+037 0 0 empty empty empty 0 -8 0 10
-262144 -1 -1 342 256;
#X msg 49 -40 stop;
#X obj 42 98 drunk;
#X obj -83 289 table Cmajor 27;
#X obj 94 167 tabread;
#X msg 104 119 set Cmajor;
#X msg -84 313 \; Cmajor 0 48 50 52 53 55 57 59 60 62 64 65 67 69 71
72 74 76 77 79 81 83 84 86 88 89 91 93 95 96;
#X obj 233 162 + 90;
#X obj 224 123 random 40;
#X obj 261 7 nbx 5 14 -1e+037 1e+037 0 0 empty empty empty 0 -8 0 10
-262144 -1 -1 130 256;
#X obj 341 77 random 5;
#X obj 382 111 tabread;
#X obj 371 269 table Times 5;
#X msg 467 65 set Times;
#X msg 335 304 \; Times 0 500 1000 2000 1000 500;
#X msg 101 73 13 20 4;
#X obj 4 144 random 27;
#X obj -56 109 send m;
#X obj 434 182 send t;
#X obj 281 207 send v;
#X obj 774 227 makenote;
#X obj 797 252 noteout;
#X obj 847 158 receive v;
#X obj 907 185 receive t;
#X obj 758 124 tabread;
#X obj 724 69 drunk;
#X obj 659 21 receive m;
#X obj 778 335 table CmajorBass 22;
#X msg 751 366 \; CmajorBass 0 36 38 40 41 43 45 47 48 50 52 53 55
57 59 60;
#X msg 821 80 set CmajorBass;
#X msg 770 2 11 22 4;
#X connect 1 0 0 0;
#X connect 1 1 0 1;
#X connect 3 0 5 0;
#X connect 5 0 8 0;
#X connect 5 0 14 0;
#X connect 5 0 16 0;
#X connect 5 0 22 0;
#X connect 5 0 23 0;
#X connect 6 0 5 1;
#X connect 7 0 5 0;
#X connect 10 0 1 0;
#X connect 10 0 4 0;
#X connect 11 0 10 0;
#X connect 13 0 1 1;
#X connect 13 0 25 0;
#X connect 14 0 13 0;
#X connect 16 0 17 0;
#X connect 17 0 1 2;
#X connect 17 0 24 0;
#X connect 19 0 17 0;
#X connect 21 0 8 0;
#X connect 22 0 10 0;
#X connect 26 0 27 0;
#X connect 26 1 27 1;
#X connect 28 0 26 1;
#X connect 29 0 26 2;
#X connect 30 0 26 0;
#X connect 31 0 30 0;
#X connect 32 0 31 0;
#X connect 35 0 30 0;
#X connect 36 0 31 0;
